<?xml version="1.0" encoding="utf-8"?>
<!-- Generator: Adobe Illustrator 22.0.1, SVG Export Plug-In . SVG Version: 6.00 Build 0)  -->
<svg version="1.1" id="svg" xmlns="http://www.w3.org/2000/svg" xmlns:xlink="http://www.w3.org/1999/xlink" x="0px" y="0px"
	 viewBox="0 0 400 115.9" style="enable-background:new 0 0 400 115.9;" xml:space="preserve">
<g id="svgg">
	<path id="path0" d="M346.3,0.2c0,0.1-0.4,0.2-1,0.2c-0.5,0-1,0.1-1.1,0.2s-0.4,0.2-0.7,0.2c-0.4,0-0.6,0.1-0.7,0.3
		c-0.1,0.1-0.3,0.3-0.6,0.3c-0.3,0-0.5,0.1-0.5,0.3c0,0.2-0.2,0.3-0.5,0.3c-0.3,0-0.5,0.1-0.5,0.3c0,0.2-0.2,0.3-0.4,0.3
		c-0.2,0-0.4,0.1-0.4,0.2c0,0.1-0.2,0.3-0.4,0.3c-0.2,0.1-0.4,0.2-0.4,0.3s-0.1,0.2-0.2,0.2c-0.3,0-1.5,1.3-1.5,1.6
		c0,0.1-0.1,0.2-0.2,0.2c-0.1,0-0.2,0.1-0.2,0.3s-0.1,0.3-0.3,0.3c-0.2,0-0.3,0.2-0.3,0.5s-0.1,0.5-0.3,0.5c-0.2,0-0.3,0.2-0.3,0.7
		c0,0.5-0.1,0.7-0.3,0.7c-0.2,0-0.3,0.2-0.3,1c0,0.8-0.1,1-0.3,1c-0.2,0-0.3,0.7-0.3,5.7v5.7h-5.3h-5.3v3.1c0,4-0.6,3.6,5.5,3.6h5
		v20.1c0,18.1,0,20.1,0.3,20.2c0.6,0.2,8.5,0.1,8.9-0.2l0.4-0.3V47.7V27.8l7.1,0c3.9,0,7.3-0.1,7.5-0.1l0.4-0.1l0-3.2l0-3.2h-7.6
		h-7.6l0-5.2c0-4.3,0-5.3,0.3-5.5c0.1-0.2,0.2-0.5,0.2-0.7c0-0.2,0.1-0.5,0.3-0.6c0.1-0.1,0.3-0.3,0.3-0.5s0.1-0.3,0.2-0.3
		c0.1,0,0.2-0.1,0.2-0.3c0-0.1,0.1-0.3,0.3-0.3s0.3-0.1,0.3-0.3c0-0.2,0.2-0.3,0.5-0.3s0.5-0.1,0.5-0.3c0-0.2,0.2-0.3,0.5-0.3
		c0.3,0,0.5-0.1,0.6-0.3c0.1-0.2,0.4-0.3,1.3-0.3c0.7,0,1.2-0.1,1.2-0.2c0-0.1,0.9-0.2,2.5-0.2c1.6,0,2.5,0.1,2.5,0.2
		c0,0.1,0.9,0.2,2.3,0.2h2.3V3.4c0-1.6,0-3-0.1-3.2C360.6-0.1,346.3-0.1,346.3,0.2 M23.2,4.8C23.1,4.9,22.8,5,21.4,5
		c-1.3,0-1.8,0.1-1.9,0.3c-0.1,0.2-0.5,0.3-1.2,0.3c-0.8,0-1,0.1-1,0.3c0,0.2-0.2,0.3-0.8,0.3c-0.6,0-0.9,0.1-0.9,0.3
		c-0.1,0.1-0.3,0.3-0.6,0.3c-0.3,0-0.5,0.1-0.6,0.2c-0.1,0.1-0.3,0.2-0.5,0.2s-0.5,0.1-0.6,0.2c-0.1,0.1-0.4,0.3-0.6,0.3
		c-0.2,0.1-0.4,0.2-0.4,0.3c0,0.1-0.2,0.2-0.3,0.2c-0.2,0-0.3,0.1-0.3,0.3c0,0.1-0.1,0.3-0.3,0.3c-0.1,0-0.3,0.1-0.3,0.3
		c0,0.1-0.1,0.3-0.2,0.3c-0.3,0-1.1,0.8-1.1,1.1c0,0.1-0.1,0.2-0.3,0.2c-0.1,0-0.3,0.1-0.3,0.3c0,0.1-0.1,0.3-0.3,0.3
		c-0.1,0-0.3,0.1-0.3,0.2s-0.1,0.3-0.3,0.3c-0.1,0.1-0.3,0.3-0.3,0.5s-0.1,0.4-0.3,0.5c-0.1,0.1-0.3,0.3-0.3,0.5
		c0,0.2-0.1,0.4-0.2,0.5c-0.5,0.2-1,16-0.5,16c0.1,0,0.2,0.3,0.2,0.7c0,0.4,0.1,0.8,0.3,1c0.1,0.1,0.3,0.4,0.3,0.6s0.1,0.5,0.3,0.6
		c0.1,0.1,0.3,0.4,0.3,0.6c0,0.2,0.1,0.3,0.3,0.3c0.2,0,0.3,0.2,0.3,0.4c0,0.2,0.1,0.5,0.2,0.5c0.1,0.1,0.3,0.2,0.3,0.4
		c0.4,0.9,1.5,2,2.4,2.4c0.1,0.1,0.3,0.2,0.4,0.3c0.1,0.1,0.3,0.2,0.5,0.2c0.2,0,0.4,0.1,0.4,0.2s0.2,0.2,0.4,0.2
		c0.2,0,0.4,0.1,0.5,0.3c0.1,0.2,0.3,0.3,0.8,0.3c0.5,0,0.7,0.1,0.7,0.3c0,0.2,0.2,0.3,0.9,0.3c0.6,0,1,0.1,1.2,0.3
		c0.2,0.2,0.8,0.3,3,0.3s2.8,0,3,0.3c0.2,0.2,1.1,0.3,6.2,0.3c5.2,0,6,0,6.1,0.3c0.1,0.2,0.3,0.3,0.8,0.3c0.4,0,0.7,0.1,0.8,0.3
		c0.1,0.1,0.3,0.3,0.4,0.3c0.4,0,1.8,1.3,1.8,1.7c0,0.1,0.1,0.2,0.3,0.2c0.2,0,0.3,0.2,0.3,0.5c0,0.3,0.1,0.6,0.3,0.7
		c0.2,0.2,0.3,1.2,0.3,6.4c0,5.4,0,6.2-0.3,6.2c-0.2,0-0.3,0.2-0.3,0.5c0,0.3-0.1,0.5-0.2,0.5c-0.1,0-0.2,0.2-0.3,0.3
		c-0.1,0.4-0.7,1-0.9,1c-0.1,0-0.2,0.1-0.2,0.3c0,0.2-0.2,0.3-0.4,0.3s-0.4,0.1-0.4,0.3c0,0.2-0.2,0.3-0.5,0.3
		c-0.3,0-0.5,0.1-0.5,0.2c0,0.1-0.3,0.2-0.7,0.2c-0.4,0-0.8,0.1-0.9,0.3c-0.2,0.2-0.6,0.3-1.2,0.3c-0.6,0-1.1,0.1-1.3,0.2
		c-0.5,0.4-10.5,0.4-10.8,0c-0.2-0.2-0.7-0.3-2.1-0.3c-1.4,0-1.9-0.1-2.1-0.3c-0.2-0.2-0.6-0.3-1.6-0.3c-0.7,0-1.4-0.1-1.4-0.2
		c-0.1-0.1-0.7-0.2-1.3-0.2c-0.9,0-1.2-0.1-1.3-0.3c-0.1-0.2-0.4-0.3-1.3-0.3c-0.9,0-1.2-0.1-1.2-0.3c0-0.2-0.2-0.3-0.9-0.3H7.8v4.3
		v4.3h0.5c0.3,0,0.5,0.1,0.6,0.3c0.1,0.2,0.5,0.3,1.9,0.3c1.5,0,1.8,0,1.9,0.3c0.1,0.2,0.5,0.3,2.3,0.3c1.7,0,2.3,0.1,2.5,0.3
		c0.5,0.4,16.9,0.4,17.4,0c0.2-0.2,0.7-0.2,1.5-0.3c0.9,0,1.2-0.1,1.3-0.3c0.1-0.2,0.4-0.3,1-0.3c0.7,0,0.9-0.1,0.9-0.3
		c0-0.2,0.2-0.3,0.7-0.3c0.5,0,0.8-0.1,0.8-0.3c0.1-0.2,0.3-0.3,0.7-0.3c0.4,0,0.6-0.1,0.6-0.3c0-0.2,0.2-0.3,0.5-0.3
		s0.5-0.1,0.5-0.3c0-0.1,0.1-0.3,0.3-0.3c0.4,0,1.3-0.5,1.3-0.7c0-0.1,0.2-0.1,0.3-0.1c0.2,0,0.3-0.1,0.3-0.3c0-0.1,0.1-0.3,0.3-0.3
		c0.1,0,0.3-0.1,0.3-0.3c0-0.1,0.1-0.3,0.3-0.3c0.1,0,0.3-0.1,0.3-0.3c0-0.1,0.1-0.3,0.3-0.3c0.1,0,0.3-0.1,0.3-0.3
		c0-0.1,0.1-0.3,0.2-0.3s0.2-0.1,0.2-0.2c0-0.1,0.1-0.3,0.3-0.3c0.1-0.1,0.3-0.2,0.3-0.4c0-0.2,0.1-0.3,0.3-0.3
		c0.2,0,0.3-0.2,0.3-0.5s0.1-0.5,0.3-0.5c0.2,0,0.3-0.2,0.3-0.5s0.1-0.5,0.3-0.5c0.2,0,0.3-0.2,0.3-0.6c0-0.4,0.1-0.7,0.3-0.7
		c0.2-0.1,0.3-0.3,0.3-0.9c0-0.5,0.1-1,0.3-1.2c0.3-0.5,0.3-14.1,0-14.2c-0.1,0-0.2-0.4-0.2-1c0-0.7-0.1-0.9-0.3-1
		c-0.2-0.1-0.3-0.3-0.3-0.7c0-0.4-0.1-0.6-0.3-0.7c-0.1-0.1-0.3-0.3-0.3-0.5c0-0.2-0.1-0.4-0.2-0.5c-0.1,0-0.3-0.3-0.3-0.5
		c-0.1-0.2-0.2-0.4-0.3-0.4c-0.1,0-0.2-0.2-0.2-0.3c0-0.2-0.1-0.3-0.3-0.3c-0.1,0-0.3-0.1-0.3-0.2c0-0.2-0.4-0.7-0.7-0.7
		c-0.1,0-0.2-0.1-0.2-0.3c0-0.1-0.1-0.3-0.2-0.3c-0.1,0-0.3-0.1-0.3-0.3C46.2,34.1,46,34,45.8,34c-0.3,0-0.4-0.1-0.4-0.3
		c0-0.2-0.2-0.3-0.4-0.3c-0.2,0-0.4-0.1-0.5-0.3c-0.1-0.2-0.3-0.3-0.8-0.3c-0.5,0-0.7-0.1-0.7-0.3c0-0.2-0.2-0.3-0.7-0.3
		c-0.4,0-0.9-0.1-1-0.3C41,32.1,40.5,32,39.6,32c-0.8,0-1.4-0.1-1.4-0.2c0-0.1-2.7-0.2-7.8-0.2c-6.9,0-7.8,0-7.8-0.3
		c0-0.2-0.2-0.3-1.2-0.3s-1.2-0.1-1.2-0.3c0-0.2-0.2-0.3-0.5-0.3c-0.3,0-0.5-0.1-0.5-0.3c0-0.2-0.2-0.3-0.4-0.3s-0.4-0.1-0.4-0.3
		c0-0.1-0.1-0.3-0.3-0.3c-0.1,0-0.3-0.1-0.3-0.3c0-0.1-0.1-0.3-0.3-0.3c-0.2,0-0.3-0.2-0.3-0.4s-0.1-0.4-0.3-0.4
		c-0.2,0-0.3-0.2-0.3-0.8c0-0.6-0.1-0.8-0.3-0.8c-0.2,0-0.3-0.6-0.3-4.5c0-3.8,0-4.5,0.3-4.6c0.2-0.1,0.3-0.3,0.3-0.8
		c0-0.4,0.1-0.8,0.3-0.9c0.1-0.1,0.3-0.4,0.3-0.5s0.1-0.4,0.3-0.4c0.1-0.1,0.3-0.2,0.3-0.3c0-0.1,0.1-0.2,0.3-0.2
		c0.1,0,0.3-0.1,0.3-0.3c0-0.1,0.1-0.3,0.3-0.3c0.1,0,0.3-0.1,0.3-0.3c0-0.2,0.2-0.3,0.4-0.3s0.4-0.1,0.4-0.3c0-0.2,0.2-0.3,0.5-0.3
		c0.3,0,0.5-0.1,0.5-0.3c0-0.2,0.2-0.3,0.9-0.3c0.5,0,0.9-0.1,0.9-0.2c0-0.1,0.6-0.2,1.5-0.2c1.1,0,1.6-0.1,1.7-0.3
		c0.4-0.4,8.9-0.4,9.3,0c0.2,0.2,0.8,0.2,2.4,0.2c1.2,0,2.2,0.1,2.2,0.2c0.1,0.1,0.9,0.2,1.9,0.2c1.5,0,1.8,0,1.9,0.3
		C43.6,13,44,13,45.7,13h2V9.3V5.5h-0.8c-0.5,0-0.9-0.1-1.1-0.3C45.5,5.1,45,5,43.1,5c-1.9,0-2.5-0.1-2.7-0.3
		c-0.2-0.2-1.4-0.3-8.7-0.3C24.4,4.5,23.3,4.5,23.2,4.8 M237.9,4.7c-0.1,0.2-0.4,0.3-1.7,0.3c-1.2,0-1.7,0.1-1.9,0.3
		c-0.2,0.2-0.6,0.3-1.2,0.3c-0.7,0-0.9,0.1-0.9,0.3c0,0.2-0.2,0.3-0.9,0.3c-0.6,0-0.9,0.1-1,0.3c-0.1,0.1-0.3,0.3-0.6,0.3
		c-0.3,0-0.5,0.1-0.6,0.1c-0.1,0.1-0.4,0.2-0.7,0.3c-0.3,0.1-0.6,0.2-0.6,0.3c0,0.1-0.1,0.2-0.3,0.2c-0.7,0.3-1.5,0.9-1.5,1.3
		c0,0.1-0.1,0.2-0.2,0.2c-0.3,0-1.3,0.9-1.3,1.2c0,0.1-0.1,0.2-0.3,0.2c-0.1,0-0.3,0.1-0.3,0.3c0,0.1-0.1,0.3-0.2,0.3
		s-0.4,0.3-0.5,0.7s-0.4,0.7-0.5,0.8c-0.1,0-0.1,0.2-0.1,0.5c0,0.3-0.1,0.5-0.3,0.6c-0.2,0.1-0.3,0.3-0.3,0.7c0,0.3-0.1,0.7-0.3,0.9
		c-0.2,0.2-0.3,1.3-0.3,7.3c0,6.2,0,7.1,0.3,7.1c0.2,0,0.3,0.2,0.3,0.9c0,0.6,0.1,0.9,0.3,1c0.1,0.1,0.3,0.3,0.3,0.5
		c0,0.2,0.1,0.5,0.2,0.5c0.1,0.1,0.2,0.3,0.2,0.5c0,0.3,0.1,0.4,0.3,0.4c0.2,0,0.3,0.2,0.3,0.4c0,0.2,0.1,0.5,0.3,0.5
		c0.1,0.1,0.3,0.2,0.3,0.3c0,0.1,0.2,0.4,0.5,0.7s0.5,0.6,0.5,0.7c0,0.1,0.1,0.2,0.3,0.2c0.1,0,0.3,0.1,0.3,0.3
		c0,0.1,0.1,0.3,0.3,0.3c0.2,0,0.4,0.1,0.4,0.3c0.1,0.1,0.2,0.3,0.3,0.3c0.1,0,0.3,0.1,0.3,0.3c0.1,0.1,0.3,0.3,0.5,0.3
		c0.2,0,0.4,0.1,0.4,0.2s0.2,0.2,0.5,0.2c0.3,0,0.5,0.1,0.5,0.3c0,0.2,0.2,0.3,0.6,0.3c0.4,0,0.7,0.1,0.7,0.3
		c0.1,0.2,0.3,0.3,0.9,0.3c0.5,0,0.9,0.1,1.1,0.3c0.2,0.2,0.8,0.3,3.1,0.3c2.4,0,2.9,0,3,0.3c0.1,0.2,0.9,0.3,6.2,0.3
		c5.3,0,6.1,0,6.1,0.3c0,0.2,0.2,0.3,0.6,0.3c0.3,0,0.7,0.1,0.8,0.3c0.1,0.1,0.4,0.3,0.6,0.3c0.2,0,0.3,0.1,0.3,0.2
		c0,0.1,0.1,0.2,0.3,0.2c0.1,0,0.3,0.1,0.3,0.3c0,0.1,0.1,0.3,0.3,0.3c0.1,0,0.3,0.1,0.3,0.3c0,0.1,0.1,0.3,0.3,0.3
		c0.1,0,0.3,0.1,0.3,0.3c0,0.1,0.1,0.3,0.1,0.3s0.2,0.3,0.3,0.7c0.1,0.4,0.2,0.7,0.3,0.7c0.3,0,0.2,12.3-0.1,12.6
		c-0.1,0.1-0.3,0.4-0.3,0.6c0,0.2-0.1,0.3-0.2,0.3c-0.1,0-0.2,0.2-0.2,0.4c0,0.3-0.1,0.4-0.3,0.4c-0.1,0-0.3,0.1-0.3,0.3
		c0,0.1-0.1,0.3-0.3,0.3c-0.1,0-0.3,0.1-0.3,0.3c0,0.2-0.2,0.3-0.5,0.3s-0.5,0.1-0.5,0.3c0,0.2-0.2,0.3-0.4,0.3
		c-0.2,0-0.5,0.1-0.5,0.2c-0.1,0.1-0.4,0.2-0.7,0.2c-0.4,0-0.7,0.1-0.8,0.3c-0.1,0.2-0.5,0.3-1.3,0.3c-0.7,0-1.1,0.1-1.3,0.3
		c-0.4,0.4-10.3,0.4-10.7,0c-0.2-0.2-0.7-0.3-2.2-0.3c-1.6,0-2,0-2.1-0.3c-0.1-0.2-0.4-0.3-1.4-0.3c-0.7,0-1.4-0.1-1.4-0.2
		c-0.1-0.1-0.7-0.2-1.4-0.2c-1.1,0-1.3,0-1.3-0.3c0-0.2-0.2-0.3-1.1-0.3c-0.9,0-1.2-0.1-1.2-0.3c-0.1-0.2-0.3-0.3-0.9-0.3h-0.8v4.3
		v4.3h0.4c0.2,0,0.4,0.1,0.5,0.3c0.1,0.2,0.4,0.3,1.9,0.3c1.3,0,1.8,0.1,2,0.3c0.2,0.2,0.7,0.3,2.4,0.3c1.7,0,2.2,0.1,2.4,0.3
		c0.4,0.4,17.1,0.4,17.5,0c0.2-0.2,0.6-0.3,1.4-0.3c0.9,0,1.2-0.1,1.3-0.3c0.1-0.2,0.3-0.3,1-0.3c0.7,0,0.9-0.1,0.9-0.3
		c0-0.2,0.2-0.3,0.7-0.3c0.5,0,0.8-0.1,0.8-0.3c0.1-0.2,0.3-0.3,0.7-0.3c0.4,0,0.6-0.1,0.6-0.3c0-0.2,0.2-0.3,0.5-0.3
		c0.3,0,0.5-0.1,0.5-0.3c0-0.2,0.2-0.3,0.5-0.3c0.3,0,0.5-0.1,0.5-0.1c0-0.1,0.5-0.4,1-0.6c0.2-0.1,0.3-0.2,0.3-0.3
		c0-0.1,0.1-0.2,0.3-0.2c0.1,0,0.3-0.1,0.3-0.3c0-0.1,0.1-0.3,0.3-0.3c0.1,0,0.3-0.1,0.3-0.3c0-0.1,0.1-0.3,0.3-0.3
		c0.1,0,0.3-0.1,0.3-0.3c0-0.1,0.1-0.3,0.3-0.3c0.1,0,0.3-0.1,0.3-0.3c0-0.1,0.1-0.3,0.2-0.3c0.1,0,0.2-0.2,0.3-0.4
		c0.1-0.2,0.2-0.4,0.3-0.5c0.1,0,0.2-0.3,0.2-0.5c0-0.2,0.1-0.4,0.2-0.4c0.1,0,0.2-0.2,0.2-0.5c0-0.3,0.1-0.5,0.3-0.5
		c0.2,0,0.3-0.2,0.3-0.7c0-0.5,0.1-0.7,0.3-0.7c0.2,0,0.3-0.2,0.3-1c0-0.7,0.1-1,0.3-1.2c0.2-0.2,0.3-1.2,0.3-7.2c0-6.1,0-7-0.3-7.1
		c-0.2-0.1-0.3-0.4-0.3-1c0-0.7-0.1-0.9-0.3-1c-0.2-0.1-0.3-0.3-0.3-0.7c0-0.5-0.1-0.6-0.3-0.6c-0.2,0-0.3-0.2-0.3-0.5
		c0-0.3-0.1-0.5-0.1-0.5s-0.2-0.1-0.3-0.3c-0.3-0.7-1.4-2-1.8-2c-0.1,0-0.2-0.1-0.2-0.3c0-0.1-0.1-0.3-0.3-0.3
		c-0.1,0-0.3-0.1-0.3-0.3c0-0.2-0.2-0.3-0.4-0.3c-0.2,0-0.4-0.1-0.5-0.3c-0.1-0.1-0.3-0.3-0.5-0.3c-0.3,0-0.4-0.1-0.4-0.3
		c0-0.2-0.2-0.3-0.8-0.3c-0.6,0-0.8-0.1-0.8-0.3c0-0.2-0.2-0.3-0.7-0.3c-0.4,0-0.9-0.1-1-0.3c-0.2-0.2-0.7-0.2-1.6-0.2
		c-0.7,0-1.3-0.1-1.4-0.2c-0.1-0.1-2.9-0.2-7.8-0.2c-6.7,0-7.8,0-7.8-0.3c-0.1-0.2-0.4-0.3-1.1-0.3c-0.8,0-1.1-0.1-1.1-0.3
		c-0.1-0.1-0.3-0.3-0.5-0.3c-0.2,0-0.4-0.1-0.5-0.3c-0.1-0.1-0.3-0.3-0.5-0.3c-0.3,0-0.4-0.1-0.4-0.3c0-0.1-0.1-0.3-0.3-0.3
		c-0.1,0-0.3-0.1-0.3-0.3c0-0.1-0.1-0.3-0.3-0.3c-0.2,0-0.3-0.2-0.3-0.4c0-0.2-0.1-0.4-0.2-0.4c-0.1,0-0.2-0.3-0.2-0.6
		c0-0.3-0.1-0.7-0.3-0.8c-0.2-0.2-0.3-1-0.3-4.6c0-3.6,0-4.4,0.3-4.6c0.1-0.1,0.3-0.6,0.3-1c0-0.4,0.1-0.8,0.2-0.8
		c0.1-0.1,0.2-0.3,0.2-0.4c0-0.2,0.1-0.4,0.3-0.4c0.1-0.1,0.3-0.2,0.3-0.3c0-0.1,0.1-0.2,0.3-0.2c0.1,0,0.3-0.1,0.3-0.3
		c0-0.1,0.1-0.3,0.3-0.3c0.1,0,0.3-0.1,0.3-0.3c0-0.2,0.2-0.3,0.4-0.3c0.2,0,0.4-0.1,0.5-0.3c0.1-0.1,0.3-0.3,0.5-0.3
		c0.3,0,0.4-0.1,0.4-0.3c0-0.2,0.2-0.3,0.9-0.3c0.5,0,1-0.1,1-0.2c0.1-0.1,0.7-0.2,1.5-0.2c1,0,1.5-0.1,1.7-0.2
		c0.5-0.4,8.8-0.4,9.3,0c0.2,0.2,0.8,0.2,2.5,0.2c1.4,0,2.2,0.1,2.2,0.2s0.8,0.2,1.9,0.2c1.6,0,1.9,0,1.9,0.3c0,0.2,0.3,0.3,2.1,0.3
		h2.1V9.3V5.5h-1c-0.7,0-1-0.1-1.1-0.3C260.4,5,259.9,5,257.9,5c-1.8,0-2.5-0.1-2.6-0.2C255.2,4.4,238,4.4,237.9,4.7 M370.8,14v7.2
		h-5h-5v3.2c0,3.9-0.7,3.4,5.4,3.4l4.6,0v15c0,13.1,0,15,0.3,15.2c0.2,0.1,0.3,0.5,0.3,1.4c0,0.9,0.1,1.1,0.3,1.1
		c0.2,0,0.3,0.2,0.3,0.8c0,0.5,0.1,0.9,0.2,0.9s0.2,0.3,0.2,0.5s0.1,0.5,0.3,0.5c0.1,0.1,0.3,0.3,0.3,0.5s0.1,0.4,0.3,0.5
		c0.1,0.1,0.3,0.2,0.3,0.3s0.1,0.2,0.3,0.2c0.1,0,0.3,0.1,0.3,0.3c0,0.1,0.1,0.3,0.3,0.3c0.1,0,0.3,0.1,0.3,0.2s0.1,0.2,0.3,0.2
		c0.1,0,0.3,0.1,0.3,0.3c0,0.1,0.1,0.3,0.3,0.3c0.1,0,0.3,0.1,0.3,0.3c0,0.2,0.2,0.3,0.4,0.3c0.3,0,0.4,0.1,0.4,0.3
		c0,0.2,0.2,0.3,0.5,0.3s0.5,0.1,0.5,0.3c0,0.2,0.2,0.3,0.7,0.3c0.4,0,0.7,0.1,0.8,0.3c0.1,0.2,0.3,0.3,1,0.3c0.6,0,0.9,0.1,1,0.2
		c0.1,0.2,1.6,0.2,7.2,0.2c5.6,0,7.2,0,7.2-0.2c0-0.1,0.4-0.2,1.1-0.2h1v-3.3v-3.3h-1.1c-0.9,0-1.1,0.1-1.1,0.3
		c0,0.2-0.3,0.3-1.9,0.3s-1.9,0-1.9,0.3c0,0.2-0.3,0.3-1.8,0.3c-1.4,0-1.8,0-1.8-0.3c0-0.2-0.3-0.3-1.4-0.3c-1.1,0-1.4,0-1.4-0.3
		c0-0.2-0.2-0.3-0.6-0.3c-0.3,0-0.7-0.1-0.9-0.3c-0.2-0.2-0.5-0.5-0.8-0.7c-0.3-0.2-0.5-0.5-0.5-0.6c0-0.1-0.1-0.2-0.3-0.2
		c-0.2,0-0.3-0.2-0.3-0.5c0-0.3-0.1-0.5-0.2-0.5s-0.2-0.4-0.2-1c0-0.7-0.1-1.1-0.3-1.2c-0.2-0.2-0.3-2-0.3-14.4V27.8l7.6,0
		c4.2,0,7.9,0,8.3-0.1l0.6-0.1v-3.2v-3.2h-8.3h-8.3V14V6.8h-4.8h-4.8V14 M80.6,20.4c-0.1,0.2-0.4,0.3-1.2,0.3
		c-0.9,0-1.1,0.1-1.1,0.3c0,0.2-0.2,0.3-0.8,0.3c-0.6,0-0.9,0.1-0.9,0.3c-0.1,0.1-0.3,0.3-0.6,0.3c-0.3,0-0.5,0.1-0.5,0.3
		c0,0.2-0.2,0.3-0.5,0.3c-0.3,0-0.5,0.1-0.5,0.2c0,0.1-0.1,0.2-0.3,0.3c-0.2,0.1-0.7,0.5-1.2,0.9L72,24.4v-1.6v-1.6h-4.8h-4.8v23.3
		v23.3h4.8H72V50.2c0-15.3,0-17.5,0.3-17.8c0.1-0.1,0.3-0.5,0.3-0.7c0-0.3,0.2-0.8,0.4-1.2c0.2-0.4,0.4-0.7,0.4-0.8s0.2-0.2,0.4-0.4
		c0.2-0.1,0.5-0.3,0.6-0.5c0.1-0.1,0.3-0.2,0.4-0.2s0.2-0.1,0.2-0.3c0-0.2,0.2-0.3,0.5-0.3c0.3,0,0.5-0.1,0.6-0.2
		c0.1-0.1,0.4-0.2,0.8-0.2s0.9-0.1,1-0.2c0.5-0.4,10.6-0.4,11,0c0.1,0.1,0.5,0.3,0.7,0.3s0.5,0.1,0.6,0.2c0.1,0.1,0.3,0.2,0.5,0.2
		c0.3,0,0.4,0.1,0.4,0.3c0,0.1,0.1,0.3,0.2,0.3c0.2,0,1.3,1.1,1.3,1.3c0,0.1,0.1,0.2,0.2,0.2c0.1,0,0.2,0.1,0.2,0.3s0.1,0.4,0.3,0.6
		c0.2,0.2,0.3,0.6,0.3,1.7c0,1,0.1,1.5,0.3,1.6c0.2,0.2,0.3,2.3,0.3,17l0,16.8l4.3,0c4.3,0,4.3,0,4.7-0.3l0.4-0.4l0-16.9
		c0-14.9,0-16.9-0.2-17c-0.2-0.1-0.3-0.5-0.3-2.3c0-1.8,0-2.3-0.3-2.3c-0.2-0.1-0.3-0.3-0.3-0.8c0-0.5-0.1-0.7-0.3-0.7
		c-0.2,0-0.3-0.2-0.3-0.5c0-0.3-0.1-0.5-0.2-0.6c-0.1-0.1-0.2-0.2-0.2-0.4c0-0.2-0.1-0.3-0.3-0.3c-0.2,0-0.3-0.2-0.3-0.4
		c0-0.2-0.1-0.5-0.3-0.5c-0.1-0.1-0.3-0.2-0.3-0.3s-0.1-0.2-0.3-0.2s-0.3-0.1-0.3-0.3s-0.1-0.3-0.2-0.3c-0.1,0-0.4-0.2-0.6-0.5
		c-0.2-0.3-0.5-0.5-0.7-0.5c-0.2,0-0.3-0.1-0.3-0.2c0-0.1-0.1-0.2-0.3-0.2c-0.1,0-0.3-0.1-0.4-0.3c-0.1-0.2-0.3-0.3-0.7-0.3
		c-0.5,0-0.6-0.1-0.6-0.3c0-0.2-0.2-0.3-0.7-0.3c-0.4,0-0.7-0.1-0.8-0.3c-0.1-0.2-0.4-0.3-1.2-0.3s-1.2-0.1-1.2-0.3
		c-0.1-0.2-0.9-0.3-5.9-0.3C81.4,20.2,80.6,20.2,80.6,20.4 M124.4,20.4c-0.2,0.2-0.8,0.3-3.2,0.3c-3.6,0-3.3-0.4-3.2,4l0,3.4
		l0.6,0.1c0.4,0,0.7,0,0.8-0.1c0.1-0.1,0.9-0.2,2-0.2c1.4,0,1.9-0.1,2.2-0.2c0.3-0.2,1-0.2,3.4-0.3c2.6,0,3.1,0,3.1-0.3
		c0.1-0.2,0.6-0.3,3.5-0.3s3.4,0,3.5,0.3c0.1,0.2,0.4,0.3,1.6,0.3c1.1,0,1.6,0.1,1.8,0.3c0.1,0.1,0.5,0.3,0.8,0.3
		c0.3,0,0.6,0.1,0.7,0.2c0.1,0.1,0.2,0.2,0.4,0.2c0.2,0,0.3,0.1,0.3,0.2c0,0.1,0.2,0.3,0.4,0.4c0.2,0.1,0.4,0.3,0.5,0.5
		c0.1,0.2,0.2,0.4,0.3,0.4c0.1,0,0.2,0.3,0.2,0.5c0.1,0.2,0.2,0.4,0.3,0.4c0.1,0,0.2,0.6,0.2,1.3c0,1,0.1,1.4,0.3,1.4
		c0.2,0.1,0.3,0.6,0.3,3.2v3.1h-8.4c-7.3,0-8.4,0-8.5,0.3c-0.1,0.2-0.5,0.3-2.2,0.3c-1.7,0-2.1,0-2.2,0.3c-0.1,0.2-0.4,0.3-1.1,0.3
		c-0.8,0-1,0.1-1,0.3c0,0.2-0.2,0.3-0.7,0.3c-0.4,0-0.7,0.1-0.7,0.2c0,0.1-0.2,0.2-0.4,0.2c-0.2,0-0.5,0.1-0.5,0.3
		c-0.1,0.1-0.3,0.3-0.5,0.3c-0.2,0-0.4,0.1-0.5,0.3c-0.1,0.1-0.2,0.3-0.3,0.3c-0.1,0-0.2,0.1-0.2,0.3c0,0.1-0.1,0.3-0.2,0.3
		c-0.1,0-0.2,0.1-0.2,0.3c0,0.1-0.1,0.3-0.3,0.3c-0.1,0-0.3,0.1-0.3,0.3c0,0.1-0.1,0.3-0.3,0.3c-0.1,0-0.3,0.1-0.3,0.2
		c0,0.1-0.1,0.3-0.3,0.3c-0.1,0.1-0.3,0.2-0.3,0.4c0,0.2-0.1,0.4-0.3,0.4c-0.2,0.1-0.3,0.3-0.3,0.8c0,0.5-0.1,0.7-0.3,0.7
		c-0.2,0-0.3,0.2-0.3,0.8c0,0.4-0.1,0.8-0.2,0.8c-0.1,0-0.2,2-0.2,5.6s0.1,5.6,0.2,5.6c0.1,0,0.2,0.4,0.2,0.9c0,0.7,0.1,0.9,0.3,1
		c0.2,0.1,0.3,0.3,0.3,0.7c0,0.5,0.1,0.6,0.3,0.6c0.2,0,0.3,0.2,0.3,0.5c0,0.3,0.1,0.5,0.3,0.5c0.1,0,0.3,0.1,0.3,0.3
		c0,0.1,0.1,0.3,0.3,0.3c0.2,0,0.3,0.2,0.3,0.4s0.1,0.4,0.3,0.4c0.1,0,0.3,0.1,0.3,0.3c0,0.1,0.1,0.3,0.2,0.3s0.3,0.1,0.3,0.3
		c0.1,0.1,0.2,0.3,0.4,0.3c0.2,0,0.3,0.1,0.3,0.3c0,0.2,0.2,0.3,0.5,0.3s0.5,0.1,0.5,0.3c0,0.2,0.2,0.3,0.5,0.3s0.5,0.1,0.5,0.3
		c0,0.2,0.2,0.3,0.7,0.3c0.4,0,0.8,0.1,0.9,0.3c0.2,0.2,0.6,0.3,1.2,0.3c0.6,0,1,0.1,1.2,0.3c0.4,0.4,13.2,0.4,13.7,0
		c0.2-0.1,0.7-0.2,1.2-0.3c0.6,0,0.9-0.1,1-0.3c0.1-0.2,0.3-0.3,0.8-0.3c0.4,0,0.7-0.1,0.8-0.3c0.1-0.1,0.3-0.3,0.5-0.3
		c0.2,0,0.4-0.1,0.4-0.3c0-0.2,0.2-0.3,0.5-0.3c0.3,0,0.5-0.1,0.5-0.3c0-0.1,0.1-0.3,0.3-0.3c0.1,0,0.3-0.1,0.3-0.3
		c0-0.1,0.1-0.3,0.3-0.3c0.2,0,0.3,0.2,0.3,1.1c0,1.5-0.1,1.4,4.7,1.4l4.1,0l0.4-0.4l0.4-0.4l0-16.4c0-12.9-0.1-16.4-0.3-16.4
		c-0.2-0.1-0.2-0.8-0.2-2.8c0-2.3,0-2.8-0.3-2.8c-0.2-0.1-0.3-0.4-0.3-1c0-0.6-0.1-0.9-0.3-1c-0.1-0.1-0.3-0.3-0.3-0.6
		c0-0.3-0.1-0.5-0.3-0.6c-0.1-0.1-0.3-0.2-0.3-0.4c0-0.2-0.1-0.3-0.2-0.3s-0.2-0.2-0.2-0.4c0-0.2-0.1-0.5-0.3-0.5
		c-0.1-0.1-0.3-0.2-0.3-0.3s-0.1-0.2-0.2-0.2c-0.1,0-0.5-0.3-0.8-0.7c-0.4-0.4-0.9-0.7-1.1-0.7c-0.2,0-0.4-0.1-0.5-0.3
		c-0.1-0.2-0.3-0.3-0.7-0.3c-0.4,0-0.6-0.1-0.7-0.3c-0.1-0.2-0.4-0.3-1-0.3c-0.7,0-0.9-0.1-0.9-0.3c0-0.2-0.3-0.3-1.4-0.3
		c-1.1,0-1.4-0.1-1.5-0.3c-0.1-0.2-1.3-0.3-9.3-0.3C125.9,20.2,124.7,20.2,124.4,20.4 M185.9,20.4c-0.2,0.2-0.7,0.2-1.5,0.3
		c-0.8,0-1.2,0.1-1.2,0.3c-0.1,0.2-0.3,0.3-0.8,0.3c-0.4,0-0.8,0.1-0.9,0.3c-0.1,0.1-0.4,0.3-0.7,0.3c-0.3,0-0.5,0.1-0.5,0.3
		c0,0.2-0.2,0.3-0.5,0.3c-0.3,0-0.5,0.1-0.5,0.2c0,0.1-0.1,0.2-0.3,0.3c-0.2,0.1-0.6,0.3-0.9,0.6l-0.6,0.5l0-1.3l0-1.3h-4.7H168
		v33.3v33.3l4.7,0l4.7,0l0-10.7c0-9.4,0.1-10.7,0.3-10.7c0.1,0,0.2,0.1,0.2,0.3c0,0.2,0.2,0.3,0.4,0.3c0.3,0,0.4,0.1,0.4,0.3
		c0,0.2,0.2,0.3,0.5,0.3c0.3,0,0.5,0.1,0.5,0.3c0,0.2,0.2,0.3,0.8,0.3c0.6,0,0.8,0.1,0.8,0.3c0,0.2,0.2,0.3,1,0.3
		c0.6,0,1.1,0.1,1.3,0.3c0.5,0.4,13.5,0.4,13.8,0c0.1-0.2,0.5-0.3,1.3-0.3c0.8,0,1.1-0.1,1.1-0.3c0.1-0.2,0.3-0.3,0.9-0.3
		c0.6,0,0.8-0.1,0.9-0.3c0.1-0.1,0.3-0.3,0.6-0.3c0.3,0,0.6-0.1,0.7-0.3c0.1-0.1,0.4-0.3,0.7-0.3c0.3,0,0.5-0.1,0.5-0.3
		c0-0.2,0.2-0.3,0.4-0.3c0.2,0,0.5-0.1,0.5-0.3c0.1-0.1,0.2-0.3,0.3-0.3c0.1,0,0.2-0.1,0.2-0.1c0-0.1,0.3-0.3,0.6-0.5
		c0.8-0.5,1.2-1,1.2-1.4c0-0.2,0.1-0.3,0.3-0.3c0.1,0,0.3-0.1,0.3-0.3c0-0.1,0.1-0.3,0.3-0.3c0.2,0,0.3-0.2,0.3-0.4
		c0-0.3,0.1-0.4,0.3-0.4c0.1,0,0.3-0.1,0.3-0.3c0-0.1,0.1-0.4,0.3-0.5c0.1-0.1,0.3-0.5,0.3-0.7c0-0.3,0.1-0.5,0.2-0.5
		s0.2-0.2,0.2-0.5c0-0.3,0.1-0.5,0.3-0.5c0.2,0,0.3-0.2,0.3-0.9c0-0.6,0.1-0.9,0.3-1c0.2-0.1,0.3-1.7,0.3-13.5
		c0-11.8,0-13.4-0.3-13.4c-0.2,0-0.3-0.2-0.3-0.7s-0.1-0.7-0.3-0.7c-0.2,0-0.3-0.2-0.3-0.5c0-0.3-0.1-0.5-0.2-0.5s-0.2-0.2-0.2-0.4
		c0-0.2-0.1-0.5-0.2-0.5c-0.2-0.2-0.6-0.7-0.7-1.1c-0.1-0.2-0.2-0.3-0.3-0.3s-0.2-0.1-0.2-0.3s-0.1-0.3-0.3-0.3
		c-0.1,0-0.3-0.1-0.3-0.3s-0.1-0.3-0.3-0.3c-0.1,0-0.3-0.1-0.3-0.3s-0.1-0.3-0.3-0.3c-0.1,0-0.3-0.1-0.3-0.3s-0.1-0.3-0.3-0.3
		c-0.1,0-0.3-0.1-0.3-0.2c0-0.1-0.2-0.2-0.3-0.3c-0.2-0.1-0.5-0.3-0.8-0.5c-0.2-0.2-0.6-0.4-0.8-0.4c-0.2,0-0.4-0.1-0.5-0.3
		c-0.1-0.2-0.3-0.3-0.7-0.3c-0.4,0-0.6-0.1-0.7-0.3c-0.1-0.2-0.3-0.3-0.8-0.3c-0.4,0-0.7-0.1-0.8-0.3c-0.1-0.2-0.4-0.3-1.2-0.3
		c-0.7,0-1.1-0.1-1.3-0.3C197.9,20,186.4,20,185.9,20.4 M288.2,20.4c-0.1,0.2-0.4,0.3-1.2,0.3c-0.9,0-1.1,0.1-1.1,0.3
		c0,0.2-0.2,0.3-0.9,0.3c-0.7,0-0.9,0.1-1,0.3c-0.1,0.2-0.3,0.3-0.7,0.3c-0.5,0-0.6,0.1-0.6,0.3c0,0.2-0.2,0.3-0.5,0.3
		c-0.3,0-0.5,0.1-0.5,0.1c0,0.1-0.2,0.2-0.4,0.3c-0.2,0.1-0.4,0.2-0.4,0.3c0,0.1-0.1,0.2-0.2,0.2c-0.2,0-0.8,0.6-0.8,0.8
		c0,0.1-0.1,0.2-0.3,0.2c-0.1,0-0.3,0.1-0.3,0.3s-0.1,0.3-0.3,0.3c-0.1,0-0.3,0.1-0.3,0.3c0,0.3-0.1,0.4-0.7,1.1
		c-0.2,0.2-0.3,0.4-0.3,0.6c0,0.1-0.1,0.4-0.3,0.5c-0.1,0.1-0.3,0.4-0.3,0.7c0,0.2-0.1,0.4-0.2,0.4s-0.2,0.3-0.2,0.7
		c0,0.5-0.1,0.7-0.3,0.7c-0.2,0-0.3,0.2-0.3,0.8c0,0.5-0.1,0.9-0.3,1.1c-0.2,0.2-0.3,2-0.3,13.8c0,12,0,13.6,0.3,13.6
		c0.2,0,0.3,0.2,0.3,0.9c0,0.7,0.1,0.9,0.3,0.9c0.2,0,0.3,0.2,0.3,0.8c0,0.4,0.1,0.8,0.2,0.8s0.2,0.2,0.2,0.3c0,0.2,0.1,0.4,0.2,0.4
		c0.1,0.1,0.3,0.3,0.3,0.5c0.1,0.2,0.2,0.4,0.3,0.4s0.2,0.1,0.2,0.3c0,0.1,0.1,0.3,0.3,0.4c0.1,0.1,0.3,0.2,0.3,0.3s0.1,0.2,0.2,0.2
		s0.3,0.2,0.6,0.4s0.5,0.4,0.7,0.4c0.2,0,0.4,0.1,0.4,0.3c0,0.1,0.1,0.3,0.3,0.3s0.4,0.1,0.5,0.3c0.1,0.1,0.4,0.3,0.7,0.3
		c0.3,0,0.5,0.1,0.5,0.3c0,0.2,0.2,0.3,0.4,0.3c0.2,0,0.5,0.1,0.7,0.3c0.1,0.1,0.5,0.3,0.9,0.3c0.4,0,0.7,0.1,0.8,0.3
		c0.1,0.2,0.4,0.3,1.1,0.3c0.6,0,1,0.1,1,0.2c0.1,0.3,19,0.4,19.6,0c0.2-0.1,0.8-0.3,1.3-0.3c0.6,0,1-0.1,1.1-0.3
		c0.1-0.1,0.5-0.3,0.9-0.3c0.4,0,0.7-0.1,0.7-0.3c0.1-0.2,0.3-0.3,0.7-0.3c0.5,0,0.6-0.1,0.6-0.3c0-0.2,0.2-0.3,0.5-0.3
		c0.3,0,0.5-0.1,0.5-0.3c0-0.1,0.1-0.3,0.3-0.3c0.2,0,0.4-0.1,0.4-0.3c0.1-0.1,0.2-0.3,0.3-0.3c0.1,0,0.3-0.2,0.6-0.4
		c0.2-0.2,0.5-0.4,0.6-0.4s0.2-0.1,0.2-0.2s0.1-0.3,0.3-0.3c0.1-0.1,0.3-0.3,0.3-0.5c0-0.3,0.1-0.4,0.3-0.4c0.1,0,0.3-0.1,0.3-0.3
		c0-0.2,0.1-0.4,0.3-0.5c0.1-0.1,0.3-0.3,0.3-0.5c0-0.2,0.1-0.3,0.2-0.4c0.1-0.1,0.2-0.3,0.2-0.6c0-0.3,0.1-0.5,0.3-0.5
		c0.2,0,0.3-0.2,0.3-0.7c0-0.4,0.1-0.8,0.3-0.9c0.2-0.2,0.3-0.6,0.3-1.6c0-1,0.1-1.5,0.3-1.7c0.2-0.2,0.3-1.6,0.3-10.7
		c0-9.1,0-10.5-0.3-10.7c-0.2-0.2-0.3-0.6-0.3-1.8c0-1.2-0.1-1.6-0.3-1.7c-0.2-0.1-0.3-0.3-0.3-0.8c0-0.5-0.1-0.8-0.3-0.8
		c-0.2-0.1-0.3-0.3-0.3-0.7c0-0.3-0.1-0.6-0.2-0.6c-0.1,0-0.2-0.2-0.2-0.4c0-0.2-0.1-0.5-0.3-0.5c-0.1-0.1-0.3-0.3-0.3-0.5
		c0-0.2-0.1-0.4-0.3-0.5c-0.1-0.1-0.3-0.3-0.3-0.5c0-0.2-0.1-0.4-0.3-0.4c-0.1,0-0.3-0.1-0.3-0.3s-0.1-0.3-0.3-0.3
		c-0.1,0-0.3-0.1-0.3-0.3s-0.1-0.3-0.3-0.3c-0.1,0-0.3-0.1-0.3-0.2c0-0.3-1.2-1.3-1.5-1.3c-0.2,0-0.3-0.1-0.3-0.2
		c0-0.1-0.2-0.2-0.5-0.2c-0.3,0-0.5-0.1-0.5-0.3c0-0.2-0.2-0.3-0.7-0.3c-0.5,0-0.7-0.1-0.7-0.3c0-0.2-0.2-0.3-0.7-0.3
		c-0.4,0-0.9-0.1-1-0.3c-0.2-0.1-0.7-0.2-1.3-0.2c-0.6,0-1-0.1-1.2-0.3c-0.2-0.2-1.4-0.3-9.1-0.3C289.5,20.2,288.3,20.2,288.2,20.4
		 M303.6,27.1c0.2,0.1,0.6,0.2,1,0.2c0.4,0,0.8,0.1,0.9,0.3c0.1,0.1,0.5,0.3,0.7,0.3c0.3,0,0.5,0.1,0.5,0.2s0.1,0.2,0.3,0.2
		c0.1,0,0.3,0.1,0.3,0.3c0,0.1,0.1,0.3,0.3,0.3c0.1,0,0.3,0.1,0.3,0.3c0,0.1,0.1,0.3,0.3,0.3c0.2,0,0.3,0.2,0.3,0.5
		c0,0.3,0.1,0.5,0.2,0.5c0.1,0,0.2,0.3,0.2,0.7c0,0.5,0.1,0.7,0.3,0.7c0.2,0,0.3,1.6,0.3,13.1c0,11.5,0,13.1-0.3,13.2
		c-0.2,0.1-0.3,0.3-0.3,0.8c0,0.4-0.1,0.7-0.2,0.7c-0.1,0-0.2,0.1-0.2,0.2c0,0.2-0.3,0.5-1.2,1.3c-0.2,0.2-0.6,0.4-0.8,0.4
		c-0.2,0-0.4,0.1-0.4,0.3c-0.1,0.2-0.3,0.3-0.7,0.3s-0.6,0.1-0.7,0.3c-0.1,0.2-0.4,0.3-1.7,0.3c-1.2,0-1.6,0.1-1.7,0.3
		c-0.1,0.2-0.7,0.3-3.9,0.3c-3.3,0-3.8,0-3.8-0.3c0-0.2-0.3-0.3-1.6-0.3c-1.3,0-1.7-0.1-1.7-0.3c-0.1-0.2-0.3-0.3-0.7-0.3
		s-0.6-0.1-0.7-0.3c-0.1-0.1-0.2-0.3-0.4-0.3s-0.6-0.3-1-0.7c-0.4-0.4-0.7-0.7-0.8-0.7c-0.1,0-0.2-0.2-0.2-0.4
		c0-0.2-0.1-0.5-0.3-0.5c-0.2-0.1-0.3-0.3-0.3-0.7c0-0.4-0.1-0.7-0.2-0.7c-0.1-0.1-0.2-4.4-0.2-12.5s0.1-12.4,0.2-12.5
		c0.1-0.1,0.2-0.4,0.2-0.8c0-0.5,0.1-0.8,0.3-0.8c0.1-0.1,0.3-0.3,0.3-0.5s0.1-0.5,0.3-0.6c0.1-0.1,0.3-0.3,0.3-0.5
		c0-0.2,0.1-0.3,0.3-0.3c0.1,0,0.3-0.1,0.3-0.3c0-0.1,0.1-0.3,0.3-0.3c0.2,0,0.4-0.1,0.4-0.2c0.1-0.1,0.2-0.2,0.4-0.2
		c0.2,0,0.4-0.1,0.6-0.3c0.2-0.2,0.6-0.3,1.1-0.3c0.6,0,0.9-0.1,0.9-0.3C291.1,26.7,303.1,26.7,303.6,27.1 M194.4,27.6
		c0.2,0.1,0.7,0.2,1.2,0.2c0.5,0,0.9,0.1,0.9,0.2s0.3,0.2,0.6,0.2c0.3,0,0.6,0.1,0.6,0.2c0,0.1,0.2,0.2,0.4,0.3
		c0.2,0.1,0.4,0.2,0.4,0.3s0.2,0.2,0.4,0.2c0.3,0,0.4,0.1,0.4,0.3c0,0.2,0.1,0.4,0.3,0.5c0.1,0.1,0.3,0.3,0.3,0.4s0.1,0.2,0.3,0.2
		c0.2,0,0.3,0.2,0.3,0.5c0,0.3,0.1,0.5,0.2,0.6s0.2,0.5,0.2,0.9c0,0.5,0.1,0.9,0.3,1.1c0.3,0.3,0.4,22,0.1,22.1
		c-0.1,0-0.2,0.5-0.3,0.9c0,0.5-0.1,0.9-0.2,1c-0.1,0-0.1,0.3-0.1,0.5s-0.1,0.4-0.3,0.5c-0.1,0.1-0.3,0.3-0.3,0.5
		c0,0.2-0.1,0.4-0.2,0.4s-0.4,0.2-0.6,0.4c-0.2,0.2-0.5,0.4-0.6,0.4c-0.1,0-0.3,0.1-0.4,0.3c-0.1,0.1-0.4,0.3-0.7,0.3
		s-0.6,0.1-0.7,0.3c-0.2,0.2-0.6,0.3-1.1,0.3c-0.6,0-0.9,0.1-0.9,0.3c-0.1,0.4-10.3,0.4-10.7,0c-0.2-0.2-0.6-0.3-1.2-0.3
		c-0.8,0-1-0.1-1-0.3c0-0.2-0.2-0.3-0.5-0.3c-0.3,0-0.5-0.1-0.5-0.2c0-0.1-0.2-0.2-0.4-0.3c-0.2-0.1-0.5-0.3-0.7-0.5
		c-0.2-0.2-0.4-0.4-0.5-0.4c-0.1,0-0.2-0.2-0.3-0.4c-0.1-0.2-0.2-0.4-0.3-0.4c-0.1,0-0.2-0.2-0.2-0.5c0-0.3-0.1-0.5-0.3-0.6
		c-0.2-0.1-0.3-0.4-0.3-1c0-0.5-0.1-0.9-0.2-0.9c-0.1,0-0.2-3.8-0.2-11c0-7.1,0.1-11,0.2-11.1c0.1-0.1,0.2-0.6,0.2-1.2
		c0-0.8,0.1-1.1,0.3-1.1c0.2,0,0.3-0.2,0.3-0.4c0-0.2,0.1-0.5,0.3-0.5c0.1-0.1,0.3-0.3,0.3-0.5c0-0.2,0.1-0.4,0.3-0.4
		c0.1,0,0.3-0.1,0.3-0.3c0-0.1,0.1-0.3,0.3-0.3c0.1,0,0.3-0.1,0.3-0.3c0-0.2,0.2-0.3,0.4-0.3s0.4-0.1,0.4-0.3c0-0.2,0.2-0.3,0.5-0.3
		c0.3,0,0.5-0.1,0.5-0.2s0.4-0.2,0.9-0.2c0.5,0,1-0.1,1.2-0.2c0.3-0.2,1.2-0.2,5.3-0.2C193.2,27.3,194.1,27.4,194.4,27.6 M145.2,52
		c0,4.8,0,5.7-0.3,5.9c-0.2,0.1-0.3,0.5-0.3,1c0,0.4-0.1,0.8-0.2,0.8c-0.2,0-1.2,1-1.2,1.2c0,0.1-0.2,0.2-0.5,0.2
		c-0.3,0-0.5,0.1-0.5,0.3c0,0.2-0.2,0.3-0.8,0.3c-0.6,0-0.9,0.1-0.9,0.3c-0.1,0.2-0.4,0.3-1.7,0.3c-1.4,0-1.6,0-1.6,0.3
		c0,0.2-0.5,0.3-3.7,0.3s-3.7,0-3.7-0.3c0-0.2-0.2-0.3-1.2-0.3c-0.9,0-1.2-0.1-1.2-0.3c0-0.2-0.2-0.3-0.5-0.3
		c-0.3,0-0.5-0.1-0.5-0.2c0-0.1-0.2-0.2-0.4-0.3c-0.2-0.1-0.4-0.2-0.4-0.3c0-0.1-0.1-0.2-0.3-0.2c-0.1,0-0.3-0.1-0.3-0.3
		c0-0.2-0.1-0.4-0.3-0.4c-0.1-0.1-0.3-0.3-0.3-0.6c0-0.3-0.1-0.5-0.3-0.5c-0.2,0-0.3-0.2-0.3-0.9c0-0.5-0.1-0.9-0.2-0.9
		c-0.1,0-0.2-1.1-0.2-2.9c0-1.8,0.1-2.9,0.2-2.9c0.1,0,0.2-0.4,0.2-1c0-0.7,0.1-1,0.3-1.1c0.1-0.1,0.3-0.3,0.3-0.5
		c0-0.2,0.1-0.4,0.2-0.4c0.1,0,0.2-0.2,0.3-0.4c0.1-0.3,0.2-0.4,0.5-0.4c0.2,0,0.4-0.1,0.5-0.2c0.1-0.1,0.3-0.2,0.5-0.2
		c0.2,0,0.5-0.1,0.7-0.2c0.3-0.2,1.6-0.2,9.1-0.3l8.8,0V52"/>
	<path id="path1" d="M194,95.7l-5.6,5.7h-94c-83.4,0-94,0-94,0.3c0,0.1-0.1,0.3-0.2,0.3c-0.1,0-0.2,0.6-0.2,1.4s0.1,1.4,0.2,1.4
		c0.1,0,0.2,0.1,0.2,0.3c0,0.2,10.6,0.3,94.1,0.3c58.1,0,94.1,0.1,94.1,0.2c0,0.1,0.2,0.2,0.4,0.3c0.4,0.1,0.8,0.5,1.1,1
		c0.1,0.2,0.3,0.3,0.5,0.4c0.2,0,0.4,0.2,0.4,0.5c0,0.3,0.2,0.5,0.4,0.5c0.3,0.1,0.9,0.6,0.9,0.9c0,0.1,0.1,0.2,0.2,0.2
		c0.3,0,0.8,0.6,0.9,0.9c0,0.2,0.2,0.3,0.5,0.4c0.4,0,0.5,0.1,0.5,0.4c0,0.3,0.1,0.4,0.3,0.5c0.2,0.1,0.5,0.2,0.7,0.4
		c0.2,0.2,0.3,0.5,0.4,0.7c0.1,0.2,0.3,0.3,0.5,0.3c0.3,0,0.4,0.1,0.4,0.5c0,0.4,0.2,0.5,0.5,0.5c0.3,0,0.5,0.2,0.5,0.3
		c0,0.1,0.1,0.2,0.2,0.2c0.1,0,0.2,0.1,0.2,0.3c0,0.1,0.1,0.3,0.3,0.3c0.1,0,0.3,0.1,0.3,0.3c0,0.1,0.1,0.3,0.3,0.3
		c0.1,0,0.3,0.1,0.3,0.3c0,0.3,0.1,0.3,0.5,0.3c0.8,0,1.3-0.2,1.3-0.4c0-0.1,0.1-0.2,0.3-0.2c0.1,0,0.3-0.1,0.3-0.3
		c0-0.1,0.1-0.3,0.3-0.3c0.1,0,0.3-0.1,0.3-0.3c0-0.1,0.1-0.3,0.3-0.3c0.1,0,0.3-0.1,0.3-0.3c0-0.1,0.1-0.3,0.3-0.3
		c0.1,0,0.3-0.1,0.3-0.3c0-0.1,0.1-0.3,0.3-0.3c0.1,0,0.3-0.1,0.3-0.2c0-0.2,0.4-0.7,0.7-0.7c0.1,0,0.2-0.1,0.2-0.3
		c0-0.1,0.1-0.3,0.3-0.3c0.1,0,0.3-0.1,0.3-0.3c0-0.1,0.1-0.3,0.3-0.3c0.1,0,0.3-0.1,0.3-0.3c0-0.1,0.1-0.3,0.3-0.3
		c0.1,0,0.3-0.1,0.3-0.3c0-0.1,0.1-0.3,0.3-0.3c0.1,0,0.3-0.1,0.3-0.2c0-0.2,0.4-0.7,0.7-0.7c0.1,0,0.2-0.1,0.2-0.3s0.1-0.3,0.3-0.3
		c0.1,0,0.3-0.1,0.3-0.3s0.1-0.3,0.3-0.3c0.1,0,0.3-0.1,0.3-0.3s0.1-0.3,0.3-0.3c0.1,0,0.3-0.1,0.3-0.3s0.1-0.3,0.3-0.3
		c0.1,0,0.3-0.1,0.3-0.3s0.1-0.3,0.3-0.3c0.1,0,0.3-0.1,0.3-0.2c0-0.2,0.4-0.7,0.7-0.7c0.1,0,0.2-0.1,0.2-0.3c0-0.1,0.1-0.3,0.3-0.3
		c0.1,0,0.3-0.1,0.3-0.3c0-0.2,10.6-0.3,94.6-0.3h94.6l0.1-0.4c0.1-0.5,0.1-2.6,0-3.1l-0.1-0.4h-94.1c-61.4,0-94.1-0.1-94.1-0.2
		c0-0.1-0.2-0.2-0.4-0.3c-0.2-0.1-0.4-0.2-0.4-0.3c0-0.1-0.1-0.1-0.2-0.1c-0.1,0-0.3-0.2-0.3-0.4c0-0.2-0.2-0.4-0.4-0.5
		c-0.2-0.1-0.4-0.4-0.5-0.6c-0.1-0.3-0.3-0.5-0.4-0.5c-0.2,0-0.4-0.2-0.7-0.4c-0.2-0.2-0.5-0.4-0.6-0.4c-0.1,0-0.2-0.1-0.2-0.3
		c0-0.1-0.1-0.3-0.2-0.3c-0.1,0-0.3-0.2-0.3-0.5c0-0.3-0.2-0.5-0.4-0.5c-0.2,0-0.4-0.2-0.5-0.4c-0.1-0.2-0.3-0.4-0.4-0.5
		c-0.4-0.1-0.9-0.6-1.1-1.1c-0.1-0.2-0.3-0.3-0.5-0.3c-0.3,0-0.4-0.1-0.4-0.5c0-0.3-0.2-0.5-0.3-0.5c-0.4-0.1-1.9-1.6-2-2
		c0-0.2-0.2-0.3-0.5-0.3c-0.3,0-0.5-0.2-0.5-0.3C200.2,89.6,199.1,90.5,194,95.7"/>
	<path id="path2" d="M0,0"/>
	<path id="path3" d="M0,0"/>
	<path id="path4" d="M0,0"/>
</g>
</svg>
